<?xml version="1.0" encoding="UTF-8"?>
<svg version="1.1" xmlns="http://www.w3.org/2000/svg" width="1500" height="735">
<path d="M0 0 C1.16841431 0.00060425 2.33682861 0.0012085 3.54064941 0.00183105 C65.17891305 0.08815621 125.5444621 9.30279618 184.25 28.1875 C185.84739014 28.69869385 185.84739014 28.69869385 187.47705078 29.22021484 C233.70941016 44.18731726 277.38474125 65.537929 320.67211914 87.36547852 C340.00264459 97.11053645 359.38501234 106.74153472 379.1875 115.5 C380.31067627 115.99854492 381.43385254 116.49708984 382.59106445 117.01074219 C391.03544253 120.72653586 399.53928869 124.14608778 408.25 127.1875 C408.20359375 126.2903125 408.1571875 125.393125 408.109375 124.46875 C407.37765626 99.17218779 418.612629 77.64030909 435.25 59.1875 C435.83394531 58.51976562 436.41789063 57.85203125 437.01953125 57.1640625 C455.07727565 37.68912803 485.45815285 25.40152463 511.57299805 24.01049805 C515.36126686 23.94298967 519.1486815 23.88874781 522.9375 23.875 C523.6257486 23.87238159 524.31399719 23.86976318 525.02310181 23.86706543 C536.81177289 23.86227127 547.87076804 25.0076747 559.25 28.1875 C560.3328125 28.47625 561.415625 28.765 562.53125 29.0625 C590.57949567 37.50713311 615.06548232 56.5247213 629.25 82.1875 C635.77003106 94.69000636 639.4585163 107.4775428 639.3125 121.5625 C639.30798828 122.39394531 639.30347656 123.22539062 639.29882812 124.08203125 C639.28713164 126.11721897 639.26919935 128.15236923 639.25 130.1875 C665.43232794 121.83900443 690.73863216 112.78214653 712.25 95.1875 C713.14589844 94.45660156 714.04179688 93.72570312 714.96484375 92.97265625 C720.17381558 88.51565629 724.12834166 83.9659634 727.77734375 78.15625 C729.25 76.1875 729.25 76.1875 732.25 75.1875 C733.8125 76.3125 733.8125 76.3125 735.25 78.1875 C733.78843134 95.67592502 717.84479574 112.16199119 706.25 124.1875 C705.55777344 124.94289063 704.86554688 125.69828125 704.15234375 126.4765625 C658.83430812 174.50145575 581.10940569 191.33494191 517.76914978 193.29522705 C514.20781623 193.35039827 510.64767614 193.3781968 507.0859375 193.390625 C505.7738028 193.39632507 504.46166809 193.40202515 503.10977173 193.40789795 C500.34498725 193.41830429 497.58023088 193.42421191 494.81542969 193.42773438 C492.04673821 193.43208171 489.27836492 193.44584791 486.50976562 193.46875 C458.27751325 193.69723301 430.90187291 191.05188983 403.25 185.1875 C401.79907959 184.88102539 401.79907959 184.88102539 400.31884766 184.56835938 C351.03995987 173.85740567 305.51545229 151.58237794 260.5 129.59118652 C186.51124202 93.45302509 113.00848562 65.82524545 30.25 58.1875 C28.56197266 58.02846191 28.56197266 58.02846191 26.83984375 57.86621094 C13.55019568 56.79829279 0.19820726 56.94445756 -13.125 56.9375 C-14.12553469 56.93661629 -14.12553469 56.93661629 -15.1462822 56.93571472 C-98.6517113 56.88384072 -186.46524239 65.40232048 -336.3125 141.5625 C-337.46371591 142.7657063 -338.61016484 143.97350689 -339.75 145.1875 C-340.74632131 146.1911652 -341.74583628 147.19168113 -342.75 148.1875 C-343.74 149.1775 -343.74 149.1775 -344.75 150.1875 C-345.74 149.8575 -346.73 149.5275 -347.75 149.1875 C-348.84872776 145.88524641 -348.90716765 144.53487355 -347.44921875 141.3125 C-346.78535156 140.28125 -346.12148438 139.25 -345.4375 138.1875 C-345.07503174 137.62426025 -344.71256348 137.06102051 -344.33911133 136.48071289 C-337.15858314 125.51887624 -328.8228953 115.61818282 -319.75 106.1875 C-319.23002441 105.64561035 -318.71004883 105.1037207 -318.17431641 104.54541016 C-311.10055915 97.21635941 -303.85291773 90.38678023 -295.75 84.1875 C-295.08790527 83.67606445 -294.42581055 83.16462891 -293.74365234 82.63769531 C-223.21748455 28.40124144 -132.18875479 6.52975083 -44.75 1.1875 C-42.77628418 1.05831177 -42.77628418 1.05831177 -40.76269531 0.92651367 C-27.17772522 0.08755924 -13.6076655 -0.01304481 0 0 Z " fill="#5062A1" transform="translate(562.75,140.8125)"/>
<path d="M0 0 C8.56297069 3.16545836 15.26736206 8.9392397 20.94140625 15.96875 C22.08444467 18.45894084 22.33471454 20.2908882 22.60351562 23.00048828 C22.7279303 24.22120529 22.7279303 24.22120529 22.8548584 25.46658325 C22.91435669 26.0886264 22.97385498 26.71066956 23.03515625 27.3515625 C24.04819824 27.25657471 25.06124023 27.16158691 26.10498047 27.0637207 C93.72751799 20.81579164 162.21846072 16.57503289 230.13772583 16.05703735 C231.66744561 16.0452612 233.19714155 16.0295973 234.72677612 16.00961304 C236.76564809 15.98643649 238.80474696 15.98664753 240.84375 15.98828125 C242.54229126 15.98380981 242.54229126 15.98380981 244.27514648 15.97924805 C247.03515625 16.3515625 247.03515625 16.3515625 248.89282227 17.71166992 C251.57383969 21.56043975 250.60513148 26.92457044 250.03515625 31.3515625 C246.7536566 41.24361942 237.75972116 50.3236262 228.76171875 55.2265625 C221.784941 58.10523297 215.16816262 58.81323025 207.78027344 57.46850586 C200.36814843 56.19546852 192.92039154 55.34330647 185.44921875 54.51171875 C183.95466564 54.34332014 182.46012866 54.17477832 180.96560669 54.00610352 C177.01107758 53.56120346 173.05598495 53.12154791 169.10063171 52.68404007 C166.65054824 52.41299961 164.20057712 52.14095904 161.75061035 51.86886597 C143.44835002 49.83993173 125.14834657 47.81560504 106.78515625 46.4140625 C106.08819641 46.36057648 105.39123657 46.30709045 104.67315674 46.25198364 C100.12937614 45.91016814 95.58383216 45.61961148 91.03515625 45.3515625 C90.31573853 45.30836884 89.5963208 45.26517517 88.85510254 45.22067261 C74.00641235 44.3460687 59.15543254 44.04675225 44.28515625 43.7890625 C41.91926554 43.74573057 39.55338006 43.70211245 37.1875 43.65820312 C31.47010789 43.55270138 25.75266225 43.45068957 20.03515625 43.3515625 C19.9833168 44.14769455 19.93147736 44.9438266 19.87806702 45.76408386 C19.42160026 52.47918189 18.88486132 59.17736753 18.23608398 65.8762207 C16.02516234 88.81795099 14.22715285 111.77797299 12.6328125 134.76953125 C12.52882668 136.26538312 12.42482652 137.761234 12.32081223 139.25708389 C11.41182677 152.34112485 10.51342534 165.42589283 9.62294519 178.51120579 C5.34625063 241.34107104 5.34625063 241.34107104 2.34375 270.40234375 C2.18996226 271.89193131 2.18996226 271.89193131 2.0330677 273.41161156 C0.91838635 284.09357599 -0.33823642 294.73386276 -1.96484375 305.3515625 C-0.86052002 305.47128418 0.24380371 305.59100586 1.3815918 305.71435547 C8.34032564 306.475205 15.29567803 307.23803408 22.23551941 308.15742493 C41.9869868 310.76038504 61.55001048 311.75919952 81.47265625 311.7890625 C82.5763858 311.79496399 83.68011536 311.80086548 84.81729126 311.8069458 C121.40843141 311.93981494 163.66837445 306.93057437 192.03515625 281.3515625 C192.8034375 280.68769531 193.57171875 280.02382813 194.36328125 279.33984375 C207.54979347 267.20735546 214.45741799 249.33740983 215.29296875 231.66796875 C215.76196134 216.4836099 213.76583203 203.8901124 203.03515625 192.3515625 C182.33958914 173.61008327 151.78332172 168.26623439 124.6953125 168.1484375 C123.62340164 168.14151382 122.55149078 168.13459015 121.44709778 168.12745667 C117.99724654 168.11022339 114.54754853 168.10386702 111.09765625 168.1015625 C109.3384787 168.09955338 109.3384787 168.09955338 107.54376221 168.09750366 C90.84015555 168.10165516 74.5310511 168.49189021 58.03515625 171.3515625 C57.17970215 171.49561523 56.32424805 171.63966797 55.44287109 171.78808594 C52.26286616 172.32467755 49.08392418 172.8669355 45.90698242 173.42138672 C31.72912309 175.83599321 31.72912309 175.83599321 25.97265625 172.6640625 C22.85636258 168.94461521 21.79825266 166.17831131 22.09765625 161.3515625 C22.76711298 157.07671833 24.66768679 155.0776092 28.03515625 152.3515625 C31.27253641 150.19330906 32.17757235 150.10166368 35.91015625 150.1640625 C36.75320313 150.17050781 37.59625 150.17695313 38.46484375 150.18359375 C41.03515625 150.3515625 41.03515625 150.3515625 43.37475586 150.84716797 C58.69357653 153.75151628 75.66971212 151.31861698 91.05307007 149.63562012 C108.19748076 147.76763413 125.16188849 146.93085951 142.41015625 146.9140625 C143.44875793 146.90834229 144.48735962 146.90262207 145.55743408 146.89672852 C171.72573289 146.79488815 196.43464725 150.68265953 220.03515625 162.3515625 C220.64343262 162.64901367 221.25170898 162.94646484 221.87841797 163.25292969 C238.31661403 171.46093582 251.30770281 183.97576122 258.03515625 201.28125 C263.47098913 217.97095565 261.8101531 235.43942935 253.97265625 251.0390625 C228.99855137 293.93513649 171.77497215 311.95983738 126.9765625 324 C115.37613138 327.00214514 103.67536659 329.2266022 91.84765625 331.1015625 C90.60290527 331.30031982 89.3581543 331.49907715 88.07568359 331.70385742 C68.2141843 334.70378477 48.51229674 335.70188291 28.43139648 335.66723633 C24.60566856 335.66406913 20.78071173 335.68766882 16.95507812 335.71289062 C-10.81546419 335.7847994 -49.53002996 335.04119872 -70.96484375 314.3515625 C-74.8211223 310.43916348 -77.30611489 307.22446277 -77.52734375 301.6015625 C-77.42988105 297.98894506 -76.52446875 295.9339904 -73.96484375 293.3515625 C-65.48157713 291.06518023 -55.92884921 295.12324 -47.91845703 297.77905273 C-43.20134357 299.16141103 -38.54874885 299.59373693 -33.65234375 299.9140625 C-32.39808594 299.99785156 -31.14382813 300.08164062 -29.8515625 300.16796875 C-28.89894531 300.22855469 -27.94632812 300.28914063 -26.96484375 300.3515625 C-24.80092471 241.44107746 -23.09489281 182.57833115 -22.3721323 123.63216496 C-22.03557343 96.20220223 -21.56673176 68.77714144 -20.96484375 41.3515625 C-24.17099559 41.65718094 -27.37654796 41.96870353 -30.58203125 42.28125 C-31.4846167 42.36721436 -32.38720215 42.45317871 -33.31713867 42.54174805 C-37.9599472 42.99734085 -42.51284859 43.54559693 -47.08984375 44.4765625 C-52.19253161 45.37446036 -57.23167109 45.66818963 -62.40234375 45.7890625 C-63.17271973 45.82338379 -63.9430957 45.85770508 -64.73681641 45.89306641 C-68.9956167 45.92579045 -70.4976034 45.72916147 -73.9375 42.94921875 C-77.18416366 38.78923545 -77.0886185 35.83593438 -77.02734375 30.7265625 C-77.02283203 30.02015625 -77.01832031 29.31375 -77.01367188 28.5859375 C-77.0018825 26.84110975 -76.98394699 25.0963255 -76.96484375 23.3515625 C-72.79860821 22.18696152 -68.76219105 22.20780516 -64.46484375 22.21875 C-63.63331787 22.21779327 -62.80179199 22.21683655 -61.94506836 22.21585083 C-60.18326746 22.2151708 -58.42146404 22.21701273 -56.65966797 22.22119141 C-54.00221902 22.22648801 -51.34494332 22.22126866 -48.6875 22.21484375 C-39.73232938 22.21168874 -30.87742843 22.35750135 -21.96484375 23.3515625 C-22.19550537 22.65587158 -22.42616699 21.96018066 -22.66381836 21.2434082 C-24.31227219 16.19253763 -25.68628279 11.71082396 -24.96484375 6.3515625 C-19.80810921 -2.93055967 -9.58692384 -2.09674487 0 0 Z " fill="#243B9E" transform="translate(399.96484375,222.6484375)"/>
<path d="M0 0 C1.16841431 0.00060425 2.33682861 0.0012085 3.54064941 0.00183105 C65.17891305 0.08815621 125.5444621 9.30279618 184.25 28.1875 C185.84739014 28.69869385 185.84739014 28.69869385 187.47705078 29.22021484 C233.70941016 44.18731726 277.38474125 65.537929 320.67211914 87.36547852 C340.00264459 97.11053645 359.38501234 106.74153472 379.1875 115.5 C380.31067627 115.99854492 381.43385254 116.49708984 382.59106445 117.01074219 C391.03544253 120.72653586 399.53928869 124.14608778 408.25 127.1875 C408.20359375 126.2903125 408.1571875 125.393125 408.109375 124.46875 C407.37765626 99.17218779 418.612629 77.64030909 435.25 59.1875 C435.83394531 58.51976562 436.41789063 57.85203125 437.01953125 57.1640625 C455.07727565 37.68912803 485.45815285 25.40152463 511.57299805 24.01049805 C515.36126686 23.94298967 519.1486815 23.88874781 522.9375 23.875 C523.6257486 23.87238159 524.31399719 23.86976318 525.02310181 23.86706543 C536.81177289 23.86227127 547.87076804 25.0076747 559.25 28.1875 C560.3328125 28.47625 561.415625 28.765 562.53125 29.0625 C590.57949567 37.50713311 615.06548232 56.5247213 629.25 82.1875 C635.77003106 94.69000636 639.4585163 107.4775428 639.3125 121.5625 C639.30798828 122.39394531 639.30347656 123.22539062 639.29882812 124.08203125 C639.28713164 126.11721897 639.26919935 128.15236923 639.25 130.1875 C665.43232794 121.83900443 690.73863216 112.78214653 712.25 95.1875 C713.14589844 94.45660156 714.04179688 93.72570312 714.96484375 92.97265625 C720.17381558 88.51565629 724.12834166 83.9659634 727.77734375 78.15625 C729.25 76.1875 729.25 76.1875 732.25 75.1875 C733.8125 76.3125 733.8125 76.3125 735.25 78.1875 C733.78843134 95.67592502 717.84479574 112.16199119 706.25 124.1875 C705.55777344 124.94289063 704.86554688 125.69828125 704.15234375 126.4765625 C658.83430812 174.50145575 581.10940569 191.33494191 517.76914978 193.29522705 C514.20781623 193.35039827 510.64767614 193.3781968 507.0859375 193.390625 C505.7738028 193.39632507 504.46166809 193.40202515 503.10977173 193.40789795 C500.34498725 193.41830429 497.58023088 193.42421191 494.81542969 193.42773438 C492.04673821 193.43208171 489.27836492 193.44584791 486.50976562 193.46875 C458.27751325 193.69723301 430.90187291 191.05188983 403.25 185.1875 C401.79907959 184.88102539 401.79907959 184.88102539 400.31884766 184.56835938 C351.03995987 173.85740567 305.51545229 151.58237794 260.5 129.59118652 C186.51124202 93.45302509 113.00848562 65.82524545 30.25 58.1875 C28.56197266 58.02846191 28.56197266 58.02846191 26.83984375 57.86621094 C13.55019568 56.79829279 0.19820726 56.94445756 -13.125 56.9375 C-14.12553469 56.93661629 -14.12553469 56.93661629 -15.1462822 56.93571472 C-98.6517113 56.88384072 -186.46524239 65.40232048 -336.3125 141.5625 C-337.46371591 142.7657063 -338.61016484 143.97350689 -339.75 145.1875 C-340.74632131 146.1911652 -341.74583628 147.19168113 -342.75 148.1875 C-343.74 149.1775 -343.74 149.1775 -344.75 150.1875 C-345.74 149.8575 -346.73 149.5275 -347.75 149.1875 C-348.84872776 145.88524641 -348.90716765 144.53487355 -347.44921875 141.3125 C-346.78535156 140.28125 -346.12148438 139.25 -345.4375 138.1875 C-345.07503174 137.62426025 -344.71256348 137.06102051 -344.33911133 136.48071289 C-337.15858314 125.51887624 -328.8228953 115.61818282 -319.75 106.1875 C-319.23002441 105.64561035 -318.71004883 105.1037207 -318.17431641 104.54541016 C-311.10055915 97.21635941 -303.85291773 90.38678023 -295.75 84.1875 C-295.08790527 83.67606445 -294.42581055 83.16462891 -293.74365234 82.63769531 C-223.21748455 28.40124144 -132.18875479 6.52975083 -44.75 1.1875 C-42.77628418 1.05831177 -42.77628418 1.05831177 -40.76269531 0.92651367 C-27.17772522 0.08755924 -13.6076655 -0.01304481 0 0 Z M-110.81408691 12.85479736 C-112.53223807 13.15007582 -114.2518633 13.43674831 -115.97167969 13.72216797 C-121.9371253 14.71570799 -127.84457577 15.88540404 -133.75 17.1875 C-134.89758789 17.43661133 -136.04517578 17.68572266 -137.22753906 17.94238281 C-172.9818273 25.82013831 -208.35405554 37.0951843 -240.8359375 54.18554688 C-242.85075984 55.24024469 -244.87745887 56.26932986 -246.90625 57.296875 C-263.27388252 65.66613365 -278.32290096 75.81527336 -292.75 87.1875 C-293.57532227 87.83477051 -294.40064453 88.48204102 -295.25097656 89.14892578 C-302.52230138 94.96259878 -309.18536094 101.22910483 -315.75 107.8125 C-316.27303711 108.33408691 -316.79607422 108.85567383 -317.33496094 109.39306641 C-325.34225139 117.40280857 -332.62333752 125.62990653 -338.75 135.1875 C-337.76 135.5175 -336.77 135.8475 -335.75 136.1875 C-335.16476562 135.60484375 -334.57953125 135.0221875 -333.9765625 134.421875 C-271.18925293 74.46282261 -164.58169471 61.53675786 -81.75 55.1875 C-81.08701904 55.13529297 -80.42403809 55.08308594 -79.7409668 55.02929688 C-57.94484636 53.32248285 -36.17052803 52.98431832 -14.3125 52.9375 C-13.05795013 52.93223297 -11.80340027 52.92696594 -10.51083374 52.92153931 C5.19671854 52.87047687 20.63897775 53.43263075 36.25 55.1875 C37.90276988 55.36573032 39.55560078 55.54339574 41.20849609 55.72045898 C44.12652878 56.03457934 47.04219072 56.36454682 49.95703125 56.70703125 C52.68461902 57.02257452 55.39868255 57.28331975 58.13671875 57.51171875 C81.16796122 59.48937696 104.57422524 64.83665165 126.69726562 71.42822266 C129.33996067 72.21425762 131.98965752 72.97284616 134.640625 73.73046875 C160.57929158 81.26090246 185.61037642 91.17946139 210.25 102.1875 C211.27883301 102.64672852 212.30766602 103.10595703 213.36767578 103.57910156 C235.54898676 113.5395105 257.3250932 124.38802277 279.14941406 135.10107422 C327.14502484 158.63623946 377.27965941 179.68914974 430.65527344 186.83154297 C432.41079865 187.07237434 434.16412779 187.32969393 435.91503906 187.60205078 C471.41489893 193.0706815 509.47554525 192.14734575 545.04248047 187.59326172 C548.08919113 187.20784285 551.13644383 186.87861839 554.19140625 186.56640625 C584.40501844 183.30484227 614.37422853 175.19012741 642.25 163.1875 C642.98847168 162.87055176 643.72694336 162.55360352 644.48779297 162.22705078 C665.29233658 153.17404726 683.77970339 140.78701053 700.25 125.1875 C700.74467773 124.73068848 701.23935547 124.27387695 701.74902344 123.80322266 C713.74315923 112.68373615 725.66964059 98.82900003 731.25 83.1875 C730.92 82.5275 730.59 81.8675 730.25 81.1875 C729.73953125 81.86554688 729.2290625 82.54359375 728.703125 83.2421875 C699.15283132 121.07075494 643.28244016 135.52004912 597.875 141.75 C597.12357727 141.85355804 596.37215454 141.95711609 595.59796143 142.06381226 C590.8916781 142.70642571 586.18212645 143.31873742 581.46899414 143.90893555 C580.05183635 144.08684038 578.63497135 144.26710412 577.21850586 144.45043945 C555.81772175 147.21748028 534.42109801 147.47120103 512.87598419 147.49712753 C510.71319307 147.49996628 508.55041966 147.50549652 506.38763428 147.51113892 C437.08560364 147.64175857 378.45252889 120.12393551 317.75 89.41699219 C301.41809445 81.16445844 284.97981735 73.24669525 268.34979248 65.61886597 C264.2935234 63.74583558 260.25683971 61.83261941 256.2199707 59.91822815 C233.55574436 49.19867299 209.88882897 40.5548081 186.125 32.625 C185.40244019 32.38314972 184.67988037 32.14129944 183.9354248 31.89212036 C173.13627643 28.29410484 162.2421965 25.13924001 151.25 22.1875 C150.18265625 21.89931396 149.1153125 21.61112793 148.015625 21.31420898 C123.13826987 14.6927207 97.79518806 10.28812972 72.25 7.1875 C71.02055664 7.03506836 69.79111328 6.88263672 68.52441406 6.72558594 C9.53174833 -0.24039321 -52.41089993 2.77549931 -110.81408691 12.85479736 Z " fill="#FFD200" transform="translate(562.75,140.8125)"/>
<path d="M0 0 C1.2080127 0.08540039 2.41602539 0.17080078 3.66064453 0.25878906 C6.83792368 0.48899397 10.01282013 0.73655213 13.1875 1 C14.05584473 1.0707373 14.92418945 1.14147461 15.81884766 1.21435547 C19.6718785 1.58035736 22.61584416 2.14530802 26 4 C24.87247314 4.01458252 23.74494629 4.02916504 22.58325195 4.04418945 C-65.46621543 5.26220494 -153.74932122 14.30049855 -335.76171875 99.94921875 C-337.86296619 101.87444546 -340.01319306 103.72078303 -342.1875 105.5625 C-346.19441818 109.07355206 -349.63762155 112.87281826 -353 117 C-354.16015625 118.42119141 -354.16015625 118.42119141 -355.34375 119.87109375 C-373.29742046 142.30267031 -384.83838269 168.55729177 -389 197 C-389.0935376 197.63341309 -389.1870752 198.26682617 -389.28344727 198.91943359 C-395.69945643 248.13386213 -381.97212631 299.96020742 -351.98999023 339.4375 C-328.90158762 369.03822795 -300.21741711 389.11028063 -267 406 C-272.37342048 407.81851566 -277.34595689 405.63849655 -282.625 404.1875 C-283.7792749 403.87127686 -284.9335498 403.55505371 -286.12280273 403.22924805 C-324.26487102 392.43978946 -361.59468459 374.47072209 -390.67578125 347.171875 C-392.65065878 345.32644323 -394.66242492 343.58930007 -396.75 341.875 C-414.97140408 326.40630245 -428.1513004 303.27714736 -436 281 C-436.22526367 280.36384766 -436.45052734 279.72769531 -436.68261719 279.07226562 C-440.23065055 268.89887466 -442.51110699 258.66567732 -444 248 C-444.09571289 247.34249756 -444.19142578 246.68499512 -444.29003906 246.00756836 C-450.28061111 199.80608659 -439.11707308 147.68801092 -410.66796875 110.33984375 C-400.03045396 96.8462954 -388.543629 84.61627828 -375 74 C-374.10925781 73.29230469 -373.21851563 72.58460938 -372.30078125 71.85546875 C-303.62516937 18.69652232 -210.34005553 4.0841378 0 0 Z " fill="#4052A0" transform="translate(584,127)"/>
<path d="M0 0 C-2.7607358 1.84049053 -4.72017848 2.66167888 -7.83984375 3.62890625 C-8.80978271 3.93658936 -9.77972168 4.24427246 -10.77905273 4.5612793 C-11.82134033 4.89168213 -12.86362793 5.22208496 -13.9375 5.5625 C-25.3684272 9.29722235 -36.21208114 13.69936167 -47 19 C-47.99177246 19.48629883 -48.98354492 19.97259766 -50.00537109 20.47363281 C-69.02821724 29.8896039 -86.48819071 40.66839888 -103 54 C-103.51304687 54.41008301 -104.02609375 54.82016602 -104.5546875 55.24267578 C-123.96621775 70.8334664 -139.81093797 88.94092154 -153 110 C-153.37866211 110.59941406 -153.75732422 111.19882813 -154.14746094 111.81640625 C-172.37760956 141.09848365 -180.73562473 175.78284425 -182 210 C-182.04125 211.01320313 -182.0825 212.02640625 -182.125 213.0703125 C-182.90746505 251.31329167 -171.17166453 290.07964371 -147 320 C-146.53625977 320.57508301 -146.07251953 321.15016602 -145.59472656 321.74267578 C-135.54196027 334.06856257 -124.59860362 345.25360289 -112 355 C-111.4229834 355.45342773 -110.8459668 355.90685547 -110.25146484 356.37402344 C-99.97668971 364.42918886 -89.28956766 371.45268241 -78 378 C-77.27055176 378.42522949 -76.54110352 378.85045898 -75.78955078 379.28857422 C-2.03042173 422.02581963 85.11590044 438.77354502 169 447 C170.17900879 447.11714355 171.35801758 447.23428711 172.57275391 447.35498047 C178.37962485 447.92943647 184.18786492 448.48154664 190 449 C190 449.33 190 449.66 190 450 C97.24576311 451.02704029 1.03799189 443.53018518 -177 350 C-177.49258301 349.54141602 -177.98516602 349.08283203 -178.49267578 348.61035156 C-209.50595609 319.612781 -230.17396472 276.25073111 -232.1061554 233.66004944 C-232.1632697 231.19614489 -232.19032228 228.73406168 -232.203125 226.26953125 C-232.21013931 225.36470505 -232.21715363 224.45987885 -232.22438049 223.52763367 C-232.24179771 220.62253801 -232.24823281 217.71764595 -232.25 214.8125 C-232.25067474 213.8220166 -232.25134949 212.8315332 -232.25204468 211.81103516 C-232.23671226 197.67655431 -231.9905822 183.86970798 -229 170 C-228.75056641 168.78376953 -228.75056641 168.78376953 -228.49609375 167.54296875 C-217.35636992 114.48487672 -185.90278891 73.26286875 -141.12548828 43.76513672 C-102.70076962 19.03865613 -46.4365347 -2.936268 0 0 Z " fill="#253066" transform="translate(303,137)"/>
<path d="M0 0 C9.86240169 0.06429206 19.91540712 6.27971735 27.3125 12.5 C29.79741572 16.11442286 29.54668312 19.52189731 29.5 23.8125 C29.49355469 24.50730469 29.48710938 25.20210938 29.48046875 25.91796875 C29.37631944 33.13030854 28.89086997 40.31168749 28.3125 47.5 C28.93511719 46.94054687 29.55773437 46.38109375 30.19921875 45.8046875 C46.9266424 31.29358916 66.12208032 20.09792028 85.8125 10.125 C86.44712158 9.80289551 87.08174316 9.48079102 87.7355957 9.14892578 C94.95795872 5.56384005 102.00028633 3.06172839 109.96484375 1.83984375 C110.78113754 1.71391342 111.59743134 1.58798309 112.4384613 1.45823669 C121.32266369 0.19982769 130.16766686 0.01163727 139.12866211 0.05395508 C141.87754391 0.06250792 144.62436569 0.03347414 147.37304688 0.00195312 C166.23074447 -0.07120441 185.83699001 2.40683601 200.3125 15.5 C201.03824219 16.14710938 201.76398438 16.79421875 202.51171875 17.4609375 C211.55448294 26.45355697 213.38623987 39.66179075 213.5625 52 C213.19969184 86.3216521 192.09874377 113.03785115 169.3125 136.5 C168.7357251 137.09651367 168.1589502 137.69302734 167.56469727 138.30761719 C163.82619789 142.11804063 159.96556634 145.60173673 155.75 148.875 C155.1521167 149.3405127 154.5542334 149.80602539 153.93823242 150.28564453 C132.33669 166.85877929 109.39594105 174.87685691 82.07714844 174.87060547 C79.94645288 174.87498161 77.81783239 174.91145733 75.6875 174.94921875 C60.55838143 175.07344016 46.81497221 171.58780791 35.375 161.125 C32.15674556 157.67850057 30.17996403 154.15790466 29.3125 149.5 C29.70465686 144.10784314 29.70465686 144.10784314 31.3125 142.5 C37.94731559 141.81363977 42.83924237 143.18543477 49.08056641 145.43115234 C54.41587191 147.30636113 59.7757314 148.6109953 65.3125 149.75 C66.10124512 149.91274414 66.88999023 150.07548828 67.70263672 150.24316406 C76.60765933 152.02606126 85.17697299 152.71422362 94.26123047 152.74023438 C96.28005721 152.74984555 98.29782151 152.78089016 100.31640625 152.8125 C115.90460831 152.87345094 134.67731942 150.950128 146.3125 139.5 C162.49933754 121.28628889 169.61120424 96.59510842 168.3125 72.5 C167.00048791 57.8645975 161.82106593 45.30722599 151 35.25 C137.32184635 24.20933786 121.03295159 24.42827696 104.3125 25.5 C98.15190598 26.23470871 92.24174924 27.70600702 86.3125 29.5 C85.04921875 29.87382812 83.7859375 30.24765625 82.484375 30.6328125 C61.75821567 37.40694683 48.44729614 51.6757671 38.5559082 70.6027832 C27.64460231 92.5429272 23.74199612 116.82515534 21.0625 140.9375 C20.97932526 141.68532745 20.89615051 142.43315491 20.81045532 143.2036438 C17.60258466 172.53649054 17.32387298 202.08968179 17.06640625 231.5703125 C17.05801098 232.51108391 17.04961571 233.45185532 17.04096603 234.42113495 C16.9638675 243.14527806 16.89230421 251.86944841 16.83569336 260.59375 C16.80385531 265.43761259 16.76265176 270.28132061 16.71549797 275.12505722 C16.69960956 276.94378808 16.68722829 278.76255342 16.67859077 280.58133316 C16.66638552 283.10272379 16.64223924 285.62374718 16.61547852 288.14501953 C16.61488937 288.87635605 16.61430023 289.60769257 16.61369324 290.3611908 C16.53601937 295.90714551 16.39850639 302.41399361 12.3125 306.5 C4.46689026 306.87962628 0.2252042 303.79304634 -5.890625 299.1171875 C-10.22844266 295.05805645 -13.85335403 291.51887829 -14.24609375 285.34765625 C-14.23407702 283.75213876 -14.19160013 282.15667216 -14.125 280.5625 C-14.09780884 279.22578247 -14.09780884 279.22578247 -14.07006836 277.86206055 C-13.81315408 268.26603032 -13.163645 258.67484813 -12.48803711 249.09985352 C-10.92805926 226.76791673 -10.48380593 204.38614393 -10.1484375 182.0078125 C-10.12751799 180.66491713 -10.10652436 179.32202291 -10.08546066 177.97912979 C-9.74863846 156.32272674 -9.58102877 134.66699909 -9.48682117 113.00830364 C-9.47317108 109.90986842 -9.45854863 106.81143807 -9.4439466 103.71300721 C-9.38126748 90.36143541 -9.32043339 77.00988181 -9.28613281 63.65820312 C-9.26780884 56.55268171 -9.23900615 49.44728655 -9.1981281 42.34185803 C-9.17722718 38.63309516 -9.16162296 34.9244888 -9.15932083 31.21566391 C-9.15678538 27.14733668 -9.13140241 23.07946619 -9.10400391 19.01123047 C-9.10701004 17.80972855 -9.11001617 16.60822662 -9.1131134 15.37031555 C-9.10202042 14.26809158 -9.09092743 13.16586761 -9.07949829 12.03024292 C-9.07618814 11.07689497 -9.072878 10.12354702 -9.06946754 9.14130974 C-8.20440712 3.15940746 -5.79064907 0.33814009 0 0 Z " fill="#20348E" transform="translate(694.6875,330.5)"/>
<path d="M0 0 C2.30638881 -0.0056754 4.61269754 -0.01672344 6.91905975 -0.02899933 C70.35021936 -0.32505401 70.35021936 -0.32505401 85.70964813 14.61925507 C90.05748187 21.70461374 91.30658647 28.23109717 89.39714813 36.36925507 C85.74416822 47.30844897 76.77554796 52.72701875 67.08464813 57.93175507 C65.99957977 58.52673798 64.91451141 59.12172089 63.79656219 59.73473358 C60.33725318 61.62643463 56.86830361 63.49939246 53.39714813 65.36925507 C51.07544823 66.62691008 48.75383299 67.8847214 46.43230438 69.14269257 C41.12990621 72.00957541 35.81951241 74.86115768 30.50457001 77.70470428 C25.13037516 80.58349596 19.76399107 83.47678518 14.39714813 86.36925507 C15.13425018 86.38383759 15.87135223 86.3984201 16.63079071 86.41344452 C100.70574593 88.25118394 100.70574593 88.25118394 125.14714813 111.55675507 C133.10221737 120.12940824 141.05566092 128.72402281 140.69402313 140.94738007 C140.11996181 145.63051194 137.94218749 148.05458937 134.43230438 151.04113007 C124.4092918 158.57923604 112.7985898 163.06393529 101.02214813 167.05675507 C99.82174896 167.46667694 99.82174896 167.46667694 98.5970993 167.88488007 C85.23473824 172.25326817 71.59402625 174.89473543 57.67986298 176.69738007 C55.4237933 176.99078977 53.17033407 177.30008561 50.91667938 177.61144257 C28.49732492 180.64240021 6.14731385 181.72592823 -16.45929718 181.68492889 C-19.22183219 181.68028803 -21.9839278 181.68728072 -24.74640656 181.70543671 C-94.91321872 182.1615334 -94.91321872 182.1615334 -120.60285187 161.36925507 C-121.39433624 160.82784882 -122.18582062 160.28644257 -123.00128937 159.72863007 C-126.401171 156.88943066 -128.28086798 154.40821289 -128.98615265 149.94200897 C-129.85144605 138.75232643 -130.73661744 121.63712399 -123.28644562 112.54113007 C-119.67455352 109.61796848 -117.69990471 109.63769432 -113.21222687 109.89659882 C-103.09799692 111.72866741 -95.3266728 120.34679318 -88.60675812 127.56066132 C-81.04909762 135.6060641 -73.75374026 141.00707057 -63.60285187 145.36925507 C-62.92077667 145.66493378 -62.23870148 145.96061249 -61.53595734 146.26525116 C-32.58107054 158.49005627 -0.85969686 163.65123015 30.39714813 163.86925507 C31.20350708 163.87987976 32.00986603 163.89050446 32.8406601 163.90145111 C50.193798 164.07703951 72.83600032 162.51805663 86.06511688 149.90050507 C89.73535352 145.6813474 91.49476683 140.93352095 91.39714813 135.36925507 C79.67239491 116.18329525 48.09297433 109.9132039 28.29558563 104.21056366 C25.87107953 103.50681972 23.46266461 102.76726124 21.05339813 102.01378632 C10.17460519 98.95136188 -0.77148738 98.83177533 -12.00592804 98.78356171 C-13.30119415 98.76930145 -14.59646027 98.7550412 -15.93097687 98.74034882 C-17.09532257 98.73962372 -18.25966827 98.73889862 -19.45929718 98.73815155 C-22.94013481 98.32967488 -24.84003699 97.49952991 -27.60285187 95.36925507 C-28.19242445 92.41667555 -27.95554313 90.98315454 -26.45832062 88.37706757 C-20.41756763 81.55823164 -13.30438219 77.35789979 -5.34894562 73.06066132 C8.4015423 65.6246679 19.96435085 57.11648778 31.39714813 46.36925507 C32.05585907 45.77499725 32.71457001 45.18073944 33.39324188 44.56847382 C39.00226119 39.32132672 43.37375542 33.12998314 44.39714813 25.36925507 C44.28766528 23.21030279 44.28766528 23.21030279 43.77214813 21.18175507 C43.63550751 20.50757538 43.49886688 19.83339569 43.35808563 19.13878632 C41.92558615 16.50089092 40.21408724 16.2761329 37.39714813 15.36925507 C32.80365425 14.91543541 28.19830237 14.99889891 23.58464813 14.99425507 C22.3774411 14.96976288 21.17023407 14.94527069 19.92644501 14.92003632 C-2.84974768 14.84977557 -25.02607593 21.20255944 -46.92786407 26.82775116 C-50.46050836 27.73329044 -53.99557177 28.62927128 -57.53058624 29.52550507 C-58.22162791 29.7007776 -58.91266958 29.87605013 -59.62465191 30.05663395 C-61.00120888 30.40576632 -62.37777881 30.75484758 -63.75436211 31.10387611 C-65.76241537 31.61316049 -67.77032431 32.12301092 -69.77822113 32.63291168 C-83.78922208 36.18686972 -83.78922208 36.18686972 -90.67316437 37.84191132 C-91.89148956 38.13589813 -93.10981476 38.42988495 -94.3650589 38.73278046 C-98.99163645 39.64225774 -103.94332245 40.37745734 -108.60285187 39.36925507 C-110.60285187 36.36925507 -110.60285187 36.36925507 -110.60285187 33.74425507 C-107.25792183 22.45511618 -96.54933273 11.35331672 -86.60285187 5.36925507 C-82.28221558 3.27564747 -78.05355998 2.8541844 -73.32941437 2.51769257 C-72.0648365 2.42164734 -72.0648365 2.42164734 -70.77471161 2.3236618 C-67.92655013 2.11615539 -65.07767737 1.9274529 -62.22785187 1.74425507 C-60.73703598 1.64669922 -60.73703598 1.64669922 -59.2161026 1.54717255 C-39.484785 0.30281158 -19.76413901 0.03633102 0 0 Z " fill="#20348E" transform="translate(1285.6028518676758,335.63074493408203)"/>
<path d="M0 0 C8.37603131 3.04582957 17.53864324 7.74981175 23 15 C24.06240231 19.31742215 23.98693067 22.1366898 22.55859375 26.32421875 C22.2248877 27.3397583 21.89118164 28.35529785 21.54736328 29.40161133 C21.1811084 30.48595459 20.81485352 31.57029785 20.4375 32.6875 C17.38155799 42.14908904 14.75463006 51.59917612 12.625 61.3125 C12.3870874 62.38910889 12.1491748 63.46571777 11.90405273 64.57495117 C9.3933159 76.29805646 7.65023098 87.67942045 7.6875 99.6875 C7.67138672 100.73744141 7.65527344 101.78738281 7.63867188 102.86914062 C7.63374793 110.79176774 8.41047025 120.86954801 14 127 C21.93963877 131.80181746 30.91881703 132.40783551 39.8515625 130.33984375 C52.49100026 126.13276865 62.18738266 118.61573733 71.53955078 109.4296875 C72.82083704 108.17538922 74.12544576 106.94500751 75.43359375 105.71875 C82.03998732 99.406759 87.52576221 92.28661477 93 85 C93.43489746 84.42588379 93.86979492 83.85176758 94.31787109 83.26025391 C105.71069585 68.1346265 115.40890153 51.26621338 121.26171875 33.20141602 C125.19973343 21.12561903 125.19973343 21.12561903 129.9609375 17.9375 C137.63881976 14.40743919 144.66359338 13.83411155 153 14 C152.98428955 14.83732666 152.9685791 15.67465332 152.95239258 16.53735352 C152.38461137 51.78051559 155.48433356 85.77915075 165.5625 119.75 C165.83094727 120.66007812 166.09939453 121.57015625 166.37597656 122.5078125 C169.49267051 132.89693328 169.49267051 132.89693328 176.53515625 140.61328125 C177.36917969 140.84402344 178.20320313 141.07476562 179.0625 141.3125 C185.80166781 143.54547799 185.80166781 143.54547799 188 147 C188.25 149.375 188.25 149.375 187 152 C179.1115794 160.54578899 162.14627758 167.48565319 151 170 C148.828125 169.8046875 148.828125 169.8046875 147 169 C137.33194422 151.84699781 135.16463689 129.20817654 131.22949219 110.21948242 C128.33671239 96.3005067 125.36782703 82.53953905 121 69 C119.02642778 71.58783666 117.16814157 74.2105412 115.3984375 76.94140625 C100.91732505 99.10652144 83.14914585 119.87811013 62 136 C61.47857422 136.4031543 60.95714844 136.80630859 60.41992188 137.22167969 C51.51713792 144.05905981 42.26876215 149.46532851 32 154 C31.15308594 154.38285156 30.30617188 154.76570312 29.43359375 155.16015625 C20.12217715 158.64181637 6.66561665 158.8017218 -2.6875 155.4375 C-11.28562101 151.16839811 -17.62785422 144.46136779 -20.93359375 135.45703125 C-25.09254053 121.03006277 -24.21096086 105.53924017 -22.9375 90.75 C-22.80474021 89.11206287 -22.67201011 87.47412333 -22.53930664 85.83618164 C-20.56490716 62.17729218 -17.84125718 38.56860994 -15 15 C-14.85658173 13.79358856 -14.85658173 13.79358856 -14.71026611 12.56280518 C-14.46496651 10.53139865 -14.2039962 8.50190017 -13.94140625 6.47265625 C-13.80549072 5.4144165 -13.6695752 4.35617676 -13.52954102 3.26586914 C-13.35479248 2.51813232 -13.18004395 1.77039551 -13 1 C-8.89999543 -1.05000228 -4.4403752 -0.63585325 0 0 Z " fill="#20348E" transform="translate(947,343)"/>
<path d="M0 0 C1.16841431 0.00060425 2.33682861 0.0012085 3.54064941 0.00183105 C65.17891305 0.08815621 125.5444621 9.30279618 184.25 28.1875 C185.84739014 28.69869385 185.84739014 28.69869385 187.47705078 29.22021484 C233.70941016 44.18731726 277.38474125 65.537929 320.67211914 87.36547852 C340.0026462 97.11053725 359.3850224 106.7415092 379.1875 115.5 C380.31720215 116.00144531 381.4469043 116.50289063 382.61083984 117.01953125 C389.93046106 120.24054205 397.28165065 123.23951247 404.8203125 125.90625 C407.45183376 126.889324 409.9271876 127.94614043 412.46875 129.125 C417.71322881 131.48540296 423.10235175 133.1091535 428.625 134.6875 C429.67647217 134.98938232 430.72794434 135.29126465 431.8112793 135.60229492 C458.56888433 143.15035087 484.57957273 144.60339196 512.25 144.5625 C513.01191273 144.56211353 513.77382545 144.56172707 514.55882645 144.56132889 C547.45627697 144.54034324 579.515587 142.60157584 611.9375 136.75 C612.7081076 136.61101288 613.47871521 136.47202576 614.27267456 136.3288269 C624.88362852 134.37549669 635.01474422 131.5798236 645.25 128.1875 C647.09051811 127.60608206 648.93158384 127.02639188 650.7734375 126.44921875 C672.9369995 119.32434361 694.11387446 110.02145759 712.25 95.1875 C713.14589844 94.45660156 714.04179688 93.72570312 714.96484375 92.97265625 C720.17381558 88.51565629 724.12834166 83.9659634 727.77734375 78.15625 C729.25 76.1875 729.25 76.1875 732.25 75.1875 C733.8125 76.3125 733.8125 76.3125 735.25 78.1875 C733.78843134 95.67592502 717.84479574 112.16199119 706.25 124.1875 C705.55777344 124.94289063 704.86554688 125.69828125 704.15234375 126.4765625 C658.83430812 174.50145575 581.10940569 191.33494191 517.76914978 193.29522705 C514.20781623 193.35039827 510.64767614 193.3781968 507.0859375 193.390625 C505.7738028 193.39632507 504.46166809 193.40202515 503.10977173 193.40789795 C500.34498725 193.41830429 497.58023088 193.42421191 494.81542969 193.42773438 C492.04673821 193.43208171 489.27836492 193.44584791 486.50976562 193.46875 C458.27751325 193.69723301 430.90187291 191.05188983 403.25 185.1875 C401.79907959 184.88102539 401.79907959 184.88102539 400.31884766 184.56835938 C351.03995987 173.85740567 305.51545229 151.58237794 260.5 129.59118652 C186.51124202 93.45302509 113.00848562 65.82524545 30.25 58.1875 C28.56197266 58.02846191 28.56197266 58.02846191 26.83984375 57.86621094 C13.55019568 56.79829279 0.19820726 56.94445756 -13.125 56.9375 C-14.12553469 56.93661629 -14.12553469 56.93661629 -15.1462822 56.93571472 C-98.6517113 56.88384072 -186.46524239 65.40232048 -336.3125 141.5625 C-337.46371591 142.7657063 -338.61016484 143.97350689 -339.75 145.1875 C-340.74632131 146.1911652 -341.74583628 147.19168113 -342.75 148.1875 C-343.74 149.1775 -343.74 149.1775 -344.75 150.1875 C-345.74 149.8575 -346.73 149.5275 -347.75 149.1875 C-348.84872776 145.88524641 -348.90716765 144.53487355 -347.44921875 141.3125 C-346.78535156 140.28125 -346.12148438 139.25 -345.4375 138.1875 C-345.07503174 137.62426025 -344.71256348 137.06102051 -344.33911133 136.48071289 C-337.15858314 125.51887624 -328.8228953 115.61818282 -319.75 106.1875 C-319.23002441 105.64561035 -318.71004883 105.1037207 -318.17431641 104.54541016 C-311.10055915 97.21635941 -303.85291773 90.38678023 -295.75 84.1875 C-295.08790527 83.67606445 -294.42581055 83.16462891 -293.74365234 82.63769531 C-223.21748455 28.40124144 -132.18875479 6.52975083 -44.75 1.1875 C-42.77628418 1.05831177 -42.77628418 1.05831177 -40.76269531 0.92651367 C-27.17772522 0.08755924 -13.6076655 -0.01304481 0 0 Z M-110.81408691 12.85479736 C-112.53223807 13.15007582 -114.2518633 13.43674831 -115.97167969 13.72216797 C-121.9371253 14.71570799 -127.84457577 15.88540404 -133.75 17.1875 C-134.89758789 17.43661133 -136.04517578 17.68572266 -137.22753906 17.94238281 C-172.9818273 25.82013831 -208.35405554 37.0951843 -240.8359375 54.18554688 C-242.85075984 55.24024469 -244.87745887 56.26932986 -246.90625 57.296875 C-263.27388252 65.66613365 -278.32290096 75.81527336 -292.75 87.1875 C-293.57532227 87.83477051 -294.40064453 88.48204102 -295.25097656 89.14892578 C-302.52230138 94.96259878 -309.18536094 101.22910483 -315.75 107.8125 C-316.27303711 108.33408691 -316.79607422 108.85567383 -317.33496094 109.39306641 C-325.34225139 117.40280857 -332.62333752 125.62990653 -338.75 135.1875 C-337.76 135.5175 -336.77 135.8475 -335.75 136.1875 C-335.16476562 135.60484375 -334.57953125 135.0221875 -333.9765625 134.421875 C-271.18925293 74.46282261 -164.58169471 61.53675786 -81.75 55.1875 C-81.08701904 55.13529297 -80.42403809 55.08308594 -79.7409668 55.02929688 C-57.94484636 53.32248285 -36.17052803 52.98431832 -14.3125 52.9375 C-13.05795013 52.93223297 -11.80340027 52.92696594 -10.51083374 52.92153931 C5.19671854 52.87047687 20.63897775 53.43263075 36.25 55.1875 C37.90276988 55.36573032 39.55560078 55.54339574 41.20849609 55.72045898 C44.12652878 56.03457934 47.04219072 56.36454682 49.95703125 56.70703125 C52.68461902 57.02257452 55.39868255 57.28331975 58.13671875 57.51171875 C81.16796122 59.48937696 104.57422524 64.83665165 126.69726562 71.42822266 C129.33996067 72.21425762 131.98965752 72.97284616 134.640625 73.73046875 C160.57929158 81.26090246 185.61037642 91.17946139 210.25 102.1875 C211.27883301 102.64672852 212.30766602 103.10595703 213.36767578 103.57910156 C235.54898676 113.5395105 257.3250932 124.38802277 279.14941406 135.10107422 C327.14502484 158.63623946 377.27965941 179.68914974 430.65527344 186.83154297 C432.41079865 187.07237434 434.16412779 187.32969393 435.91503906 187.60205078 C471.41489893 193.0706815 509.47554525 192.14734575 545.04248047 187.59326172 C548.08919113 187.20784285 551.13644383 186.87861839 554.19140625 186.56640625 C584.40501844 183.30484227 614.37422853 175.19012741 642.25 163.1875 C642.98847168 162.87055176 643.72694336 162.55360352 644.48779297 162.22705078 C665.29233658 153.17404726 683.77970339 140.78701053 700.25 125.1875 C700.74467773 124.73068848 701.23935547 124.27387695 701.74902344 123.80322266 C713.74315923 112.68373615 725.66964059 98.82900003 731.25 83.1875 C730.92 82.5275 730.59 81.8675 730.25 81.1875 C729.73953125 81.86554688 729.2290625 82.54359375 728.703125 83.2421875 C699.15283132 121.07075494 643.28244016 135.52004912 597.875 141.75 C597.12357727 141.85355804 596.37215454 141.95711609 595.59796143 142.06381226 C590.8916781 142.70642571 586.18212645 143.31873742 581.46899414 143.90893555 C580.05183635 144.08684038 578.63497135 144.26710412 577.21850586 144.45043945 C555.81772175 147.21748028 534.42109801 147.47120103 512.87598419 147.49712753 C510.71319307 147.49996628 508.55041966 147.50549652 506.38763428 147.51113892 C437.08560364 147.64175857 378.45252889 120.12393551 317.75 89.41699219 C301.41809445 81.16445844 284.97981735 73.24669525 268.34979248 65.61886597 C264.2935234 63.74583558 260.25683971 61.83261941 256.2199707 59.91822815 C233.55574436 49.19867299 209.88882897 40.5548081 186.125 32.625 C185.40244019 32.38314972 184.67988037 32.14129944 183.9354248 31.89212036 C173.13627643 28.29410484 162.2421965 25.13924001 151.25 22.1875 C150.18265625 21.89931396 149.1153125 21.61112793 148.015625 21.31420898 C123.13826987 14.6927207 97.79518806 10.28812972 72.25 7.1875 C71.02055664 7.03506836 69.79111328 6.88263672 68.52441406 6.72558594 C9.53174833 -0.24039321 -52.41089993 2.77549931 -110.81408691 12.85479736 Z " fill="#F6F7FA" transform="translate(562.75,140.8125)"/>
<path d="M0 0 C7.46954185 0.65431725 14.48900861 2.6085527 21.69921875 4.59375 C23.09296057 4.97301261 24.48684528 5.35175039 25.88085938 5.73001099 C28.89646123 6.54931583 31.91113959 7.37190743 34.92514038 8.19708252 C39.74851124 9.51749965 44.57384889 10.83061629 49.3996582 12.14208984 C50.22829722 12.3672975 51.05693624 12.59250515 51.91068554 12.82453728 C53.62024349 13.28915048 55.32980746 13.75374153 57.03937721 14.21831131 C59.6917296 14.93933235 62.34388878 15.6610606 64.99601746 16.38290405 C79.10489716 20.22159992 93.22256651 24.02714824 107.34375 27.8203125 C108.9300418 28.246432 108.9300418 28.246432 110.5483799 28.68115997 C117.92786594 30.66326216 125.30766016 32.64421555 132.6875 34.625 C139.72392955 36.51372992 146.7602389 38.40290591 153.79629517 40.29302597 C156.50339572 41.02004233 159.21067592 41.74638678 161.91796875 42.47268677 C163.55949763 42.91356218 165.20101829 43.35446819 166.8425293 43.79541016 C167.57088328 43.99060997 168.29923727 44.18580978 169.04966259 44.38692474 C173.3787065 45.55069231 177.6927269 46.75799629 182 48 C181.41146688 52.31966413 180.35740427 56.02105787 178.71484375 60.0546875 C178.26689453 61.16328125 177.81894531 62.271875 177.35742188 63.4140625 C176.65456055 65.12722656 176.65456055 65.12722656 175.9375 66.875 C175.46505859 68.0403125 174.99261719 69.205625 174.50585938 70.40625 C173.34267209 73.27309544 172.17389942 76.13752807 171 79 C166.97217888 78.45760379 163.73844149 77.6169972 160.10546875 75.8046875 C159.16807861 75.34433105 158.23068848 74.88397461 157.26489258 74.40966797 C156.24935303 73.90322754 155.23381348 73.39678711 154.1875 72.875 C151.92599168 71.76773877 149.66288853 70.66373061 147.3984375 69.5625 C146.80241226 69.27253143 146.20638702 68.98256287 145.59230042 68.68380737 C138.56080684 65.27833508 131.43585113 62.08243502 124.3125 58.875 C112.14174813 53.38652808 100.05293165 47.74235894 88 42 C75.5173005 36.05379659 62.99114823 30.22556458 50.38723755 24.54098511 C33.48788815 16.91470142 16.74308899 8.9621906 0 1 C0 0.67 0 0.34 0 0 Z " fill="#FFD800" transform="translate(784,174)"/>
<path d="M0 0 C3.15249906 3.71271204 4.92250722 7.9054547 6.88671875 12.3125 C7.26058716 13.14095932 7.63445557 13.96941864 8.01965332 14.82298279 C9.24712365 17.54649969 10.46736428 20.27319028 11.6875 23 C12.54496696 24.90649415 13.40280008 26.81282366 14.26098633 28.71899414 C19.93529812 41.33585739 25.55513716 53.9769071 31.15673828 66.62619019 C37.21415849 80.30216037 43.40406518 93.91552727 49.64448547 107.50886536 C50.25526221 108.84001202 50.86522228 110.17153376 51.47428894 111.50346375 C52.81915619 114.44246415 54.17744145 117.3733191 55.56494141 120.29248047 C56.02433105 121.26717285 56.4837207 122.24186523 56.95703125 123.24609375 C57.55414917 124.49217407 57.55414917 124.49217407 58.16333008 125.76342773 C59 128 59 128 59 132 C55.4205283 133.34386556 51.83584287 134.67323814 48.25 136 C46.72632813 136.57234375 46.72632813 136.57234375 45.171875 137.15625 C44.1921875 137.5171875 43.2125 137.878125 42.203125 138.25 C41.30239258 138.58515625 40.40166016 138.9203125 39.47363281 139.265625 C37 140 37 140 33 140 C30.17222478 128.46969756 27.34603348 116.939008 24.52163887 105.40787697 C23.20882837 100.04827171 21.89555548 94.68878082 20.58105469 89.32958984 C15.31885497 67.87392947 10.06591412 46.4157423 4.91140366 24.93391037 C4.46897174 23.09237966 4.02504022 21.25120852 3.57953262 19.41041946 C2.96901864 16.88581293 2.36430887 14.35988757 1.76123047 11.83349609 C1.5810223 11.09312984 1.40081413 10.3527636 1.21514511 9.58996201 C0.42648491 6.2588692 0 3.44991104 0 0 Z " fill="#FFA300" transform="translate(993,27)"/>
<path d="M0 0 C0.495 0.99 0.495 0.99 1 2 C-0.05712891 4.43237305 -0.05712891 4.43237305 -1.7265625 7.51171875 C-2.64598633 9.21908203 -2.64598633 9.21908203 -3.58398438 10.9609375 C-4.26403988 12.20327998 -4.94438584 13.44546349 -5.625 14.6875 C-6.31883387 15.96719076 -7.01218849 17.24714148 -7.70507812 18.52734375 C-12.39450471 27.16754093 -17.20884807 35.73464514 -22.08251953 44.2722168 C-26.3526911 51.77911865 -30.44489412 59.37558244 -34.5 67 C-40.20249124 77.72149045 -46.0760529 88.33317723 -52.09765625 98.87890625 C-55.13883191 104.21264452 -58.07755463 109.60048968 -61 115 C-64.29140797 114.43768657 -67.01815939 113.67362568 -69.98828125 112.15234375 C-71.04692383 111.61577148 -71.04692383 111.61577148 -72.12695312 111.06835938 C-72.84818359 110.69517578 -73.56941406 110.32199219 -74.3125 109.9375 C-75.05306641 109.56044922 -75.79363281 109.18339844 -76.55664062 108.79492188 C-78.37387522 107.86871843 -80.18732404 106.93509371 -82 106 C-81.40920179 102.92508778 -80.52877833 101.09276712 -78.515625 98.70703125 C-77.74134155 97.77515991 -77.74134155 97.77515991 -76.95141602 96.82446289 C-76.38994873 96.16051514 -75.82848145 95.49656738 -75.25 94.8125 C-70.55406874 89.15569797 -65.98922401 83.43232104 -61.5625 77.5625 C-56.54678779 70.93353366 -51.33869575 64.4933881 -46.02636719 58.10058594 C-41.695883 52.87831765 -37.52477403 47.56020826 -33.4140625 42.1640625 C-26.30963957 32.85244022 -18.98719775 23.72027538 -11.58398438 14.64526367 C-7.65052912 9.81843729 -3.78001378 4.94838168 0 0 Z " fill="#FFBB01" transform="translate(1218,58)"/>
<path d="M0 0 C1.44159915 2.70474914 2.43830097 5.24386916 3.18960571 8.21252441 C3.40270889 9.04524368 3.61581207 9.87796295 3.83537292 10.73591614 C4.06195084 11.64097397 4.28852875 12.5460318 4.52197266 13.47851562 C4.76610397 14.43827805 5.01023529 15.39804047 5.26176453 16.3868866 C6.06722165 19.55883996 6.86585658 22.73246479 7.6640625 25.90625 C8.22144044 28.11062324 8.77909189 30.31492734 9.33700562 32.51916504 C10.50505041 37.1384814 11.6697138 41.75863384 12.83203125 46.37939453 C14.32316024 52.30615654 15.82272796 58.23074477 17.32483864 64.15473175 C18.47779698 68.70569226 19.62624414 73.25778177 20.77332687 77.81022644 C21.32453805 79.99549213 21.87716859 82.18040031 22.43123245 84.36494446 C23.20435438 87.41598946 23.9713883 90.4685015 24.73681641 93.52148438 C24.96744278 94.42654221 25.19806915 95.33160004 25.4356842 96.26408386 C25.64314774 97.09680313 25.85061127 97.9295224 26.06436157 98.78747559 C26.24612253 99.50865318 26.42788349 100.22983078 26.61515236 100.97286224 C27 103 27 103 27 107 C24.51004335 108.24497833 22.81005089 108.12934372 20.02734375 108.1328125 C18.55491211 108.13474609 18.55491211 108.13474609 17.05273438 108.13671875 C16.02470703 108.13285156 14.99667969 108.12898438 13.9375 108.125 C12.90560547 108.12886719 11.87371094 108.13273437 10.81054688 108.13671875 C9.83021484 108.13542969 8.84988281 108.13414062 7.83984375 108.1328125 C6.93613037 108.13168457 6.03241699 108.13055664 5.10131836 108.12939453 C3 108 3 108 2 107 C1.84620508 104.94754296 1.76138894 102.88989883 1.70288086 100.83251953 C1.68322769 100.18633667 1.66357452 99.54015381 1.64332581 98.87438965 C1.57890556 96.71064237 1.52169297 94.54677107 1.46484375 92.3828125 C1.42171539 90.85382297 1.37829887 89.32484154 1.33460999 87.79586792 C1.24326012 84.5591401 1.15545411 81.32233971 1.07006836 78.08544922 C0.96337719 74.0507628 0.84829614 70.01637397 0.73050499 65.98199844 C0.0932042 43.98341793 -0.12554635 22.00730952 0 0 Z " fill="#FF9B01" transform="translate(1061,46)"/>
<path d="M0 0 C-13.03878988 7.86838484 -26.10691112 15.68216922 -39.25 23.375 C-40.14939301 23.90145111 -40.14939301 23.90145111 -41.06695557 24.4385376 C-44.75379929 26.59603852 -48.44166249 28.75179241 -52.12982178 30.90704346 C-57.15866565 33.8459654 -62.18640484 36.78677044 -67.21282959 39.72982788 C-68.43890039 40.44748691 -69.66517578 41.16479656 -70.8916626 41.88174438 C-77.00715583 45.45683989 -83.10931677 49.05048445 -89.16015625 52.734375 C-90.09142334 53.30051514 -91.02269043 53.86665527 -91.98217773 54.44995117 C-93.69245528 55.49349696 -95.39925436 56.54277429 -97.10180664 57.59887695 C-97.84422607 58.05222412 -98.58664551 58.50557129 -99.3515625 58.97265625 C-99.98916504 59.36718994 -100.62676758 59.76172363 -101.28369141 60.16821289 C-103 61 -103 61 -106 61 C-106.67404284 58.43923903 -107.339414 55.87673417 -108 53.3125 C-108.19078125 52.59126953 -108.3815625 51.87003906 -108.578125 51.12695312 C-108.75859375 50.42119141 -108.9390625 49.71542969 -109.125 48.98828125 C-109.29257813 48.34415283 -109.46015625 47.70002441 -109.6328125 47.03637695 C-110.06113004 44.66098028 -110.05852411 42.40863294 -110 40 C-103.31271325 37.4369433 -96.62518148 34.87452658 -89.9375 32.3125 C-88.91166809 31.91949707 -87.88583618 31.52649414 -86.82891846 31.12158203 C-73.82493302 26.14014681 -60.81858992 21.16493191 -47.80859375 16.19921875 C-47.18241842 15.96020655 -46.5562431 15.72119434 -45.91109276 15.47493935 C-39.14670063 12.89300554 -32.38198567 10.31191924 -25.61694336 7.73168945 C-23.36702301 6.87321417 -21.11710431 6.01473457 -18.8671875 5.15625 C-17.83899399 4.76430954 -16.81080048 4.37236908 -15.75144958 3.96855164 C-14.80077103 3.605746 -13.85009247 3.24294037 -12.87060547 2.86914062 C-12.04640106 2.55481079 -11.22219666 2.24048096 -10.37301636 1.91662598 C-8.69011982 1.26657286 -7.02786525 0.56190394 -5.38308716 -0.17932129 C-3 -1 -3 -1 0 0 Z " fill="#FFD701" transform="translate(1314,189)"/>
<path d="M0 0 C3.65916384 1.65764531 6.8233016 3.90411687 10.0625 6.25 C10.66465332 6.68328613 11.26680664 7.11657227 11.88720703 7.56298828 C23.66164198 16.06064577 35.32089617 24.71671395 46.92333984 33.44726562 C53.03664457 38.04180338 59.19252906 42.57780328 65.35546875 47.10546875 C70.25840883 50.70883435 75.13942766 54.33967117 80 58 C78.1777866 62.07634294 75.55232577 64.17791507 72 66.75 C71.4534375 67.16121094 70.906875 67.57242188 70.34375 67.99609375 C66.27200997 71 66.27200997 71 64 71 C62.765625 69.77734375 62.765625 69.77734375 61.25 67.9375 C57.71850184 63.78193252 54.0430664 59.78823235 50.3125 55.8125 C49.07929286 54.49621949 47.84622067 53.17981253 46.61328125 51.86328125 C46.00436035 51.21311035 45.39543945 50.56293945 44.76806641 49.89306641 C42.16600884 47.10704675 39.58200208 44.30459596 37 41.5 C32.68528424 36.81580198 28.34857366 32.15277775 24 27.5 C19.47219153 22.6523022 14.94639299 17.80280486 10.4375 12.9375 C9.96119141 12.42574219 9.48488281 11.91398437 8.99414062 11.38671875 C0 1.66332348 0 1.66332348 0 0 Z " fill="#FFCA00" transform="translate(935,114)"/>
<path d="M0 0 C0 0.66 0 1.32 0 2 C-0.7734375 2.23074219 -1.546875 2.46148438 -2.34375 2.69921875 C-11.88321264 5.68620396 -20.56343139 9.15351261 -26 18 C-28.90150065 24.54189277 -30.87948637 30.8384681 -30 38 C-28.56688794 41.58278015 -27.43105423 42.73761916 -24.125 44.75 C-14.91479435 48.43408226 -4.23035784 47.8435597 4.9765625 44.22265625 C11.43155337 40.90985256 16.59812165 34.805322 19 28 C19.70429967 22.02323472 19.51105238 17.08497241 16 12 C12.57634975 8.27426296 9.387348 7.17594795 4.46875 6.83984375 C-3.5717861 7.36146081 -8.72145601 11.33522108 -14 17 C-14.99 17 -15.98 17 -17 17 C-16.79071707 13.33754868 -16.07082794 12.07436933 -13.5 9.375 C-5.65490438 3.50968087 3.48886911 3.00177989 13 4 C18.82029307 5.6096748 22.83764871 8.82524334 26 14 C27.82685094 20.66063044 27.33431542 26.94042367 24 33 C17.12861483 42.5331428 7.3060328 49.65687389 -4.1875 52.55078125 C-13.572013 54.04969652 -23.75106097 54.50361656 -32.109375 49.5 C-35.80654893 46.56670498 -37.5038978 43.48830659 -39 39 C-39.80441051 29.82972017 -36.55463848 22.06026578 -30.81640625 14.94140625 C-22.6822128 6.24744034 -12.31696151 -1.1619775 0 0 Z " fill="#000000" transform="translate(1074,551)"/>
<path d="M0 0 C0 0.66 0 1.32 0 2 C-0.7734375 2.23074219 -1.546875 2.46148438 -2.34375 2.69921875 C-11.88321264 5.68620396 -20.56343139 9.15351261 -26 18 C-28.90150065 24.54189277 -30.87948637 30.8384681 -30 38 C-28.56688794 41.58278015 -27.43105423 42.73761916 -24.125 44.75 C-14.91479435 48.43408226 -4.23035784 47.8435597 4.9765625 44.22265625 C11.43155337 40.90985256 16.59812165 34.805322 19 28 C19.70429967 22.02323472 19.51105238 17.08497241 16 12 C12.57634975 8.27426296 9.387348 7.17594795 4.46875 6.83984375 C-3.5717861 7.36146081 -8.72145601 11.33522108 -14 17 C-14.99 17 -15.98 17 -17 17 C-16.79071707 13.33754868 -16.07082794 12.07436933 -13.5 9.375 C-5.65490438 3.50968087 3.48886911 3.00177989 13 4 C18.82029307 5.6096748 22.83764871 8.82524334 26 14 C27.82685094 20.66063044 27.33431542 26.94042367 24 33 C17.12861483 42.5331428 7.3060328 49.65687389 -4.1875 52.55078125 C-13.572013 54.04969652 -23.75106097 54.50361656 -32.109375 49.5 C-35.80654893 46.56670498 -37.5038978 43.48830659 -39 39 C-39.80441051 29.82972017 -36.55463848 22.06026578 -30.81640625 14.94140625 C-22.6822128 6.24744034 -12.31696151 -1.1619775 0 0 Z " fill="#000000" transform="translate(841,551)"/>
<path d="M0 0 C0.99 0.495 0.99 0.495 2 1 C-4.61332826 7.17474803 -11.30031876 13.14295006 -18.3515625 18.8203125 C-20.97275119 20.97757399 -23.49154281 23.21311 -26 25.5 C-30.29991791 29.41891252 -34.75919547 33.09170869 -39.28125 36.75 C-42.76844136 39.63595147 -46.09758894 42.67700111 -49.44140625 45.7265625 C-53.07965124 48.9593237 -56.85779763 52.00813104 -60.65234375 55.0546875 C-62.97674627 56.87020207 -62.97674627 56.87020207 -64.56640625 58.8203125 C-66 60 -66 60 -67.94921875 60.05078125 C-71.04888381 58.46257192 -72.09639748 56.1753248 -73.8125 53.1875 C-74.43769531 52.12917969 -75.06289062 51.07085937 -75.70703125 49.98046875 C-77 47 -77 47 -76.83496094 44.97143555 C-75.71010024 42.31551446 -74.48160769 41.7867239 -71.93359375 40.4765625 C-71.06822998 40.02039551 -70.20286621 39.56422852 -69.3112793 39.09423828 C-68.36293213 38.60938965 -67.41458496 38.12454102 -66.4375 37.625 C-64.40974848 36.55531837 -62.38376432 35.48228108 -60.359375 34.40625 C-59.30685547 33.84808594 -58.25433594 33.28992188 -57.16992188 32.71484375 C-52.10351966 29.97405438 -47.14717862 27.05325536 -42.1875 24.125 C-32.56562573 18.46251354 -22.86427611 12.95753384 -13.1081543 7.52978516 C-12.11984619 6.97983887 -11.13153809 6.42989258 -10.11328125 5.86328125 C-8.81064331 5.14072144 -8.81064331 5.14072144 -7.48168945 4.40356445 C-5.72434311 3.40966537 -4.00105966 2.35440415 -2.30541992 1.25854492 C-1.54463135 0.8432251 -0.78384277 0.42790527 0 0 Z " fill="#FFD101" transform="translate(1268,158)"/>
<path d="M0 0 C0.97710938 0.15855469 1.95421875 0.31710937 2.9609375 0.48046875 C6.43308482 0.97835828 9.85372954 1.1377012 13.35668945 1.23950195 C24.0300766 1.5829895 34.7783538 2.49267059 43 10 C45.93288619 13.82585992 47.35488719 17.60427448 47 22.4375 C46.16255739 27.34372942 44.30074798 31.61445872 42 36 C41.46375 37.051875 40.9275 38.10375 40.375 39.1875 C33.75937041 47.0217982 23.48685711 50.00100613 14 53 C13.36707031 53.20238281 12.73414063 53.40476562 12.08203125 53.61328125 C8.75696555 54.23088257 5.43319925 54.30740166 2.0625 54.375 C1.35931641 54.41238281 0.65613281 54.44976563 -0.06835938 54.48828125 C-4.11624926 54.55656805 -5.80238786 54.15778134 -9.00390625 51.6015625 C-11 49 -11 49 -11 47 C-7.53058454 47.45822468 -4.32604951 47.89131683 -1 49 C-1.33 35.47 -1.66 21.94 -2 8 C-6.95 9.485 -6.95 9.485 -12 11 C-12.66 10.34 -13.32 9.68 -14 9 C-14 8.01 -14 7.02 -14 6 C-12.2092015 5.49689942 -10.41733089 4.99761372 -8.625 4.5 C-7.12839844 4.08234375 -7.12839844 4.08234375 -5.6015625 3.65625 C-3 3 -3 3 -1 3 C-0.67 2.01 -0.34 1.02 0 0 Z M7 5 C4.99271437 19.94787169 3.99306026 34.95561607 3 50 C5.05775743 49.87323217 7.11495322 49.73732907 9.171875 49.59765625 C10.3175293 49.52297119 11.46318359 49.44828613 12.64355469 49.37133789 C21.79125363 48.35928886 29.09014499 44.01720056 35 37 C38.11098946 31.64171896 39.92154381 26.2204207 39 20 C37.01853749 14.21145784 34.16645227 10.41180811 29 7 C21.54655721 3.57058662 14.99575206 3.29056335 7 5 Z " fill="#000000" transform="translate(1178,550)"/>
<path d="M0 0 C0.33 0 0.66 0 1 0 C1 26.73 1 53.46 1 81 C-4.22906802 80.3463665 -8.93698697 79.65051354 -14 78.4375 C-15.134375 78.16808594 -16.26875 77.89867187 -17.4375 77.62109375 C-18.283125 77.41613281 -19.12875 77.21117187 -20 77 C-19.43001073 68.44183995 -17.08479912 60.45357727 -14.74609375 52.24609375 C-14.32092169 50.73455339 -13.89637638 49.22283661 -13.47242737 47.71095276 C-12.36240178 43.75879115 -11.24395378 39.80906276 -10.12365723 35.85980225 C-8.97897467 31.81879381 -7.84238091 27.77551219 -6.70507812 23.73242188 C-4.47790474 15.81938406 -2.24181686 7.90890163 0 0 Z " fill="#FFB401" transform="translate(1121,76)"/>
<path d="M0 0 C5.17201408 0.64637392 9.66118644 2.21028787 14.4921875 4.0625 C15.30773102 4.3700975 16.12327454 4.67769501 16.96353149 4.99461365 C19.60265126 5.99130533 22.23880821 6.99559276 24.875 8 C26.68273715 8.68421848 28.49068067 9.36789194 30.29882812 10.05102539 C33.87824897 11.40403101 37.45665056 12.75967637 41.03417969 14.11767578 C47.51565906 16.57671861 54.00723508 19.00843488 60.5 21.4375 C62.38547981 22.14436285 64.27090444 22.85137292 66.15625 23.55859375 C66.90712891 23.84017334 67.65800781 24.12175293 68.43164062 24.41186523 C68.94919922 24.60594971 69.46675781 24.80003418 70 25 C69.41653987 28.06492811 68.58118882 29.8196312 66.49609375 32.12890625 C66.00302734 32.68900391 65.50996094 33.24910156 65.00195312 33.82617188 C63.95529152 34.98782252 62.90841499 36.14927954 61.86132812 37.31054688 C58.72585069 40.64022395 58.72585069 40.64022395 58 45 C54.38292594 43.38860208 51.4902873 41.18105107 48.375 38.75 C47.81578857 38.31526367 47.25657715 37.88052734 46.68041992 37.43261719 C45.44741589 36.47348409 44.2156203 35.51279602 42.98486328 34.55078125 C40.91856643 32.93637564 38.84841763 31.32702196 36.77734375 29.71875 C33.7581221 27.37402466 30.74158714 25.02590036 27.7265625 22.67578125 C24.50016286 20.1626921 21.26492329 17.66156574 18.0234375 15.16796875 C17.21350342 14.5430957 16.40356934 13.91822266 15.5690918 13.27441406 C14.02326333 12.08212156 12.47536513 10.89250588 10.92504883 9.70605469 C7.00711143 6.67865957 3.40732891 3.59476547 0 0 Z " fill="#FFD900" transform="translate(918,166)"/>
<path d="M0 0 C5.77669854 4.48123754 9.38865389 10.81997925 13.20703125 16.94921875 C16.30799251 14.56142575 19.01614283 12.2057696 21.51953125 9.19921875 C24.07637748 6.23572813 26.64869217 3.29931901 29.33203125 0.44921875 C29.95335937 -0.22109375 30.5746875 -0.89140625 31.21484375 -1.58203125 C33.73158316 -3.43750971 35.14592174 -3.43909333 38.20703125 -3.05078125 C40.01953125 -1.73828125 40.01953125 -1.73828125 41.20703125 -0.05078125 C41.20703125 0.93921875 41.20703125 1.92921875 41.20703125 2.94921875 C40.64757813 3.1709375 40.088125 3.39265625 39.51171875 3.62109375 C30.78798737 7.49207423 24.21391706 13.61879021 17.20703125 19.94921875 C20.59158092 29.45330773 29.17577808 41.37004426 37.9453125 46.57421875 C38.69167969 47.02796875 39.43804688 47.48171875 40.20703125 47.94921875 C40.20703125 48.60921875 40.20703125 49.26921875 40.20703125 49.94921875 C36.56267232 51.16400506 34.03578878 51.36269149 30.20703125 50.94921875 C27.65234375 48.74609375 27.65234375 48.74609375 25.33203125 45.69921875 C24.91711426 45.16651367 24.50219727 44.63380859 24.07470703 44.08496094 C22.76280046 42.38906959 21.48420048 40.67137454 20.20703125 38.94921875 C19.3281081 37.79199151 18.44791393 36.63572845 17.56640625 35.48046875 C15.42080293 32.65552091 13.30617391 29.80892034 11.20703125 26.94921875 C6.95784729 30.91874892 3.69672144 35.23815538 0.39453125 40.01171875 C-0.12882812 40.75671631 -0.6521875 41.50171387 -1.19140625 42.26928711 C-3.60056179 45.7146903 -5.9641365 49.17676739 -8.2109375 52.73046875 C-8.89800781 53.81328125 -9.58507813 54.89609375 -10.29296875 56.01171875 C-10.88078125 56.97207031 -11.46859375 57.93242188 -12.07421875 58.921875 C-12.64140625 59.59089844 -13.20859375 60.25992188 -13.79296875 60.94921875 C-15.11296875 60.94921875 -16.43296875 60.94921875 -17.79296875 60.94921875 C-18.60546875 57.8203125 -18.60546875 57.8203125 -18.79296875 53.94921875 C-17.17236367 51.5704897 -15.82930304 49.95463726 -13.79296875 48.01171875 C-12.76366313 46.96418957 -11.73501648 45.91601247 -10.70703125 44.8671875 C-10.20333008 44.36622559 -9.69962891 43.86526367 -9.18066406 43.34912109 C-7.42444351 41.57745173 -5.78985006 39.71897582 -4.16796875 37.82421875 C-0.10747147 33.14130947 4.05144636 28.54768911 8.20703125 23.94921875 C6.13752144 19.46435775 3.12405449 16.14112656 -0.10546875 12.44921875 C-0.95915039 11.45341797 -0.95915039 11.45341797 -1.83007812 10.4375 C-5.37997872 6.35368783 -8.8782605 2.40657288 -13.79296875 -0.05078125 C-13.79296875 -0.71078125 -13.79296875 -1.37078125 -13.79296875 -2.05078125 C-8.82469419 -3.55999104 -4.42223624 -2.59168094 0 0 Z " fill="#000000" transform="translate(1309.79296875,553.05078125)"/>
<path d="M0 0 C1.56160485 -0.08187055 3.12448483 -0.13958275 4.6875 -0.1875 C5.55761719 -0.22230469 6.42773438 -0.25710938 7.32421875 -0.29296875 C10.623326 0.06824737 12.2853014 1.10705939 15 3 C21.07786864 10.71866917 24.5848247 20.62167088 28.5 29.54296875 C31.13858065 35.41793348 33.75448102 40.53154756 37.99609375 45.40966797 C38.32738281 45.93447754 38.65867187 46.45928711 39 47 C38.67 47.99 38.34 48.98 38 50 C34.535 50.495 34.535 50.495 31 51 C27.7 44.73 24.4 38.46 21 32 C18.69 32.66 16.38 33.32 14 34 C11.64477539 34.31884766 11.64477539 34.31884766 9.59765625 34.4140625 C8.85322266 34.45273437 8.10878906 34.49140625 7.34179688 34.53125 C6.58962891 34.5621875 5.83746094 34.593125 5.0625 34.625 C4.28326172 34.66367187 3.50402344 34.70234375 2.70117188 34.7421875 C0.80112621 34.83544127 -1.09940278 34.91875962 -3 35 C-3.38091797 36.07314453 -3.38091797 36.07314453 -3.76953125 37.16796875 C-6.00603005 42.31546599 -9.60061807 46.5684421 -13 51 C-13.60585937 51.81082031 -14.21171875 52.62164063 -14.8359375 53.45703125 C-17.71151513 57.06776787 -19.25469406 58.76398645 -23.75 60.1875 C-27 60 -27 60 -28.9375 58.8125 C-30 57 -30 57 -30 53 C-29.443125 53.226875 -28.88625 53.45375 -28.3125 53.6875 C-24.86691137 54.15312008 -23.78943664 53.09207748 -21 51 C-15.63084944 46.24197227 -11.47269665 41.27756703 -8 35 C-9.03060547 35.05220703 -9.03060547 35.05220703 -10.08203125 35.10546875 C-10.98308594 35.13253906 -11.88414063 35.15960937 -12.8125 35.1875 C-14.15248047 35.23970703 -14.15248047 35.23970703 -15.51953125 35.29296875 C-18 35 -18 35 -19.8125 33.65625 C-21.43567041 31.39235443 -21.2202914 29.71692729 -21 27 C-20.443125 27.2165625 -19.88625 27.433125 -19.3125 27.65625 C-18.549375 27.9346875 -17.78625 28.213125 -17 28.5 C-16.2575 28.7784375 -15.515 29.056875 -14.75 29.34375 C-11.08186048 30.21910148 -7.76835611 30.09580566 -4 30 C-1.95903835 26.59497856 0.05412887 23.17432888 2.0625 19.75 C2.64322266 18.78191406 3.22394531 17.81382812 3.82226562 16.81640625 C4.36689453 15.88183594 4.91152344 14.94726562 5.47265625 13.984375 C5.98062744 13.12553711 6.48859863 12.26669922 7.01196289 11.38183594 C8.16410177 9.08963084 8.16410177 9.08963084 7.88061523 6.79785156 C6.33669938 3.64581488 3.13628834 3.14046849 0 2 C0 1.34 0 0.68 0 0 Z M10 12 C8.32992313 14.97726736 6.66451428 17.9571197 5 20.9375 C4.52304688 21.78763672 4.04609375 22.63777344 3.5546875 23.51367188 C2.87792969 24.72700195 2.87792969 24.72700195 2.1875 25.96484375 C1.76855469 26.7137085 1.34960938 27.46257324 0.91796875 28.23413086 C-0.07687345 29.81617648 -0.07687345 29.81617648 0 31 C6.93 31 13.86 31 21 31 C19.40964498 26.22893494 17.77190615 22.47494079 15.375 18.125 C14.74335937 16.97257813 14.11171875 15.82015625 13.4609375 14.6328125 C12.97882813 13.76398437 12.49671875 12.89515625 12 12 C11.34 12 10.68 12 10 12 Z " fill="#000000" transform="translate(1384,552)"/>
<path d="M0 0 C1.56160485 -0.08187055 3.12448483 -0.13958275 4.6875 -0.1875 C5.55761719 -0.22230469 6.42773438 -0.25710938 7.32421875 -0.29296875 C10.623326 0.06824737 12.2853014 1.10705939 15 3 C21.07786864 10.71866917 24.5848247 20.62167088 28.5 29.54296875 C31.13858065 35.41793348 33.75448102 40.53154756 37.99609375 45.40966797 C38.32738281 45.93447754 38.65867187 46.45928711 39 47 C38.67 47.99 38.34 48.98 38 50 C34.535 50.495 34.535 50.495 31 51 C27.7 44.73 24.4 38.46 21 32 C18.69 32.66 16.38 33.32 14 34 C11.64477539 34.31884766 11.64477539 34.31884766 9.59765625 34.4140625 C8.85322266 34.45273437 8.10878906 34.49140625 7.34179688 34.53125 C6.58962891 34.5621875 5.83746094 34.593125 5.0625 34.625 C4.28326172 34.66367187 3.50402344 34.70234375 2.70117188 34.7421875 C0.80112621 34.83544127 -1.09940278 34.91875962 -3 35 C-3.38091797 36.07314453 -3.38091797 36.07314453 -3.76953125 37.16796875 C-6.00603005 42.31546599 -9.60061807 46.5684421 -13 51 C-13.60585938 51.81082031 -14.21171875 52.62164063 -14.8359375 53.45703125 C-17.71151513 57.06776787 -19.25469406 58.76398645 -23.75 60.1875 C-27 60 -27 60 -28.9375 58.8125 C-30 57 -30 57 -30 53 C-29.443125 53.226875 -28.88625 53.45375 -28.3125 53.6875 C-24.86691137 54.15312008 -23.78943664 53.09207748 -21 51 C-15.63084944 46.24197227 -11.47269665 41.27756703 -8 35 C-9.03060547 35.05220703 -9.03060547 35.05220703 -10.08203125 35.10546875 C-10.98308594 35.13253906 -11.88414062 35.15960937 -12.8125 35.1875 C-14.15248047 35.23970703 -14.15248047 35.23970703 -15.51953125 35.29296875 C-18 35 -18 35 -19.8125 33.65625 C-21.43567041 31.39235443 -21.2202914 29.71692729 -21 27 C-20.443125 27.2165625 -19.88625 27.433125 -19.3125 27.65625 C-18.549375 27.9346875 -17.78625 28.213125 -17 28.5 C-16.2575 28.7784375 -15.515 29.056875 -14.75 29.34375 C-11.08186048 30.21910148 -7.76835611 30.09580566 -4 30 C-1.95903835 26.59497856 0.05412887 23.17432888 2.0625 19.75 C2.64322266 18.78191406 3.22394531 17.81382812 3.82226562 16.81640625 C4.36689453 15.88183594 4.91152344 14.94726562 5.47265625 13.984375 C5.98062744 13.12553711 6.48859863 12.26669922 7.01196289 11.38183594 C8.16410177 9.08963084 8.16410177 9.08963084 7.88061523 6.79785156 C6.33669938 3.64581488 3.13628834 3.14046849 0 2 C0 1.34 0 0.68 0 0 Z M10 12 C8.32992313 14.97726736 6.66451428 17.9571197 5 20.9375 C4.52304687 21.78763672 4.04609375 22.63777344 3.5546875 23.51367188 C2.87792969 24.72700195 2.87792969 24.72700195 2.1875 25.96484375 C1.76855469 26.7137085 1.34960938 27.46257324 0.91796875 28.23413086 C-0.07687345 29.81617648 -0.07687345 29.81617648 0 31 C6.93 31 13.86 31 21 31 C19.40964498 26.22893494 17.77190615 22.47494079 15.375 18.125 C14.74335937 16.97257813 14.11171875 15.82015625 13.4609375 14.6328125 C12.97882812 13.76398437 12.49671875 12.89515625 12 12 C11.34 12 10.68 12 10 12 Z " fill="#000000" transform="translate(959,552)"/>
<path d="M0 0 C2.625 2.3125 2.625 2.3125 4 5 C4.08478595 9.06972561 3.34879046 10.59464892 0.6875 13.6875 C-1.49036841 15.5614798 -3.69313292 17.29321348 -6 19 C-5.25234375 19.23074219 -4.5046875 19.46148438 -3.734375 19.69921875 C0.54004066 21.11469933 4.17263443 22.32656291 7.6875 25.1875 C9.56243486 29.20521755 9.761296 32.64633848 9 37 C5.57251541 43.42653361 -1.38364992 45.66779571 -8 47.75 C-14.36174432 49.23250636 -20.68598432 49.32170889 -27.1875 49.375 C-28.71987305 49.39578613 -28.71987305 49.39578613 -30.28320312 49.41699219 C-37.16292796 49.37457987 -44.87518744 49.12481256 -50 44 C-50.125 41.375 -50.125 41.375 -50 39 C-45.86229245 39.44975082 -42.15065716 40.21651308 -38.1875 41.5 C-33.11838536 43.07211573 -28.28876119 43.72772368 -23 44 C-22.16339844 44.05285156 -21.32679688 44.10570312 -20.46484375 44.16015625 C-14.15042683 44.38462548 -7.26087447 43.85420653 -2.30859375 39.51953125 C0.2918092 36.49995887 0.28515126 33.82964973 0.20703125 29.90234375 C0.11837555 27.92039774 0.11837555 27.92039774 -1.0625 26.125 C-6.88386919 22.74485015 -12.90485568 22.73813557 -19.4375 22.875 C-20.67790039 22.88853516 -20.67790039 22.88853516 -21.94335938 22.90234375 C-23.96236708 22.92568488 -25.98122356 22.96154712 -28 23 C-28 21.68 -28 20.36 -28 19 C-26.99839844 18.89042969 -25.99679687 18.78085937 -24.96484375 18.66796875 C-15.11266278 17.6357685 -15.11266278 17.6357685 -6 14 C-4.47508002 10.95016004 -4.76437452 8.3576631 -5 5 C-6.58983414 2.28793 -8.16347237 1.9378805 -11.125 0.8125 C-19.43270894 -0.92943897 -26.09445246 0.29749321 -34.15209961 2.48876953 C-38.44413944 3.655815 -42.59722795 4.45680085 -47 5 C-47 3.35 -47 1.7 -47 0 C-10.69573631 -6.36650971 -10.69573631 -6.36650971 0 0 Z " fill="#000000" transform="translate(791,555)"/>
<path d="M0 0 C0.495 0.99 0.495 0.99 1 2 C0.01879883 3.94506836 0.01879883 3.94506836 -1.54296875 6.33984375 C-2.11619873 7.22841064 -2.68942871 8.11697754 -3.2800293 9.0324707 C-3.90949463 9.99113037 -4.53895996 10.94979004 -5.1875 11.9375 C-6.48998897 13.95025839 -7.79206538 15.96328383 -9.09375 17.9765625 C-9.75246094 18.99008789 -10.41117188 20.00361328 -11.08984375 21.04785156 C-13.82742608 25.27878785 -16.50818416 29.54453164 -19.1875 33.8125 C-24.71681731 42.59037243 -30.34349592 51.30368172 -36 60 C-39.90285767 58.41332422 -42.33520982 55.86649519 -45.25 52.875 C-46.14203125 51.96492188 -47.0340625 51.05484375 -47.953125 50.1171875 C-48.62859375 49.41851562 -49.3040625 48.71984375 -50 48 C-46.91039599 40.96256865 -40.16494335 36.08250528 -34.44921875 31.1640625 C-31.15700737 28.25515483 -27.9557603 25.25356627 -24.75 22.25 C-19.97204008 17.7766611 -15.1916007 13.30676133 -10.375 8.875 C-9.45460938 8.02679688 -8.53421875 7.17859375 -7.5859375 6.3046875 C-5.12227935 4.10898009 -2.59738165 2.03477191 0 0 Z " fill="#FFCB01" transform="translate(1219,134)"/>
<path d="M0 0 C7 1 7 1 8 2 C7.95977328 4.84681386 7.84955732 7.65913521 7.6875 10.5 C7.61692383 11.80783447 7.61692383 11.80783447 7.54492188 13.14208984 C7.11923743 20.64280738 6.57888461 28.1346989 6 35.625 C5.91709717 36.72134766 5.83419434 37.81769531 5.7487793 38.94726562 C5.66668213 39.96755859 5.58458496 40.98785156 5.5 42.0390625 C5.4278125 42.94865723 5.355625 43.85825195 5.28125 44.79541016 C5 47 5 47 4 49 C19.65138829 49.9757781 19.65138829 49.9757781 33.5625 43.9375 C35.7442904 40.99682598 36.17867341 39.18232465 36.25 35.5625 C36.28867188 34.38880859 36.28867188 34.38880859 36.328125 33.19140625 C35.91880027 30.45770181 35.17029809 29.66171315 33 28 C26.84864983 25.70832053 21.12019066 24.95993645 14.8125 27.0625 C11.70383757 28.09872081 10.09989639 27.91173423 7 27 C7.33 26.01 7.66 25.02 8 24 C9.051875 24.020625 10.10375 24.04125 11.1875 24.0625 C14.77172392 24.12383003 14.77172392 24.12383003 17.3125 23.515625 C25.03443748 22.03409048 33.64401305 21.63966972 40.51171875 25.875 C42.64965612 27.49107864 43.89486604 28.51344859 45 31 C45.53016105 36.56669105 45.34759519 39.37113496 42 44 C32.13384237 51.72908378 20.79099134 54.17468981 8.5625 54.25 C7.72912109 54.270625 6.89574219 54.29125 6.03710938 54.3125 C0.948453 54.34468123 -2.6180641 53.89110238 -7 51 C-7.875 48.8125 -7.875 48.8125 -8 47 C-5.36 47.33 -2.72 47.66 0 48 C0 32.16 0 16.32 0 0 Z " fill="#000000" transform="translate(1235,550)"/>
<path d="M0 0 C1.32 0.33 2.64 0.66 4 1 C4 1.99 4 2.98 4 4 C4.84820313 3.9278125 5.69640625 3.855625 6.5703125 3.78125 C15.08502245 3.10755866 23.45712664 2.88315219 32 3 C28.19934798 6.80065202 21.89302508 6.01782629 16.75024414 6.03662109 C15.22021052 6.03415396 13.69017896 6.02971964 12.16015625 6.0234375 C11.37386841 6.02174561 10.58758057 6.02005371 9.77746582 6.01831055 C7.85163921 6.01392203 5.92581816 6.00719733 4 6 C3.95046707 11.32021739 3.91421744 16.64029976 3.89013672 21.96069336 C3.88009513 23.76963643 3.8664592 25.57856333 3.84912109 27.38745117 C3.82479168 29.99141435 3.81349839 32.59516242 3.8046875 35.19921875 C3.78920364 36.40731453 3.78920364 36.40731453 3.77340698 37.63981628 C3.77256271 41.88969226 4.03483771 45.12067443 6 49 C12.09095238 47.15739048 12.09095238 47.15739048 17.75 44.3125 C20.37436834 42.78161847 22.01169241 42.74385935 25 43 C24 46 24 46 21.41796875 47.3515625 C19.81888672 47.98191406 19.81888672 47.98191406 18.1875 48.625 C16.60001953 49.26308594 16.60001953 49.26308594 14.98046875 49.9140625 C11.02426245 51.35551119 7.65141082 52.16443836 3.4375 52.25 C2.67308594 52.27578125 1.90867187 52.3015625 1.12109375 52.328125 C-1 52 -1 52 -2.75390625 50.93359375 C-4.63176724 48.01967152 -4.44064634 45.16632454 -4.375 41.8125 C-4.36919922 41.0894165 -4.36339844 40.36633301 -4.35742188 39.62133789 C-4.11925397 29.01735313 -2.49365446 18.48603694 -1 8 C-1.92280762 8.02356567 -1.92280762 8.02356567 -2.86425781 8.04760742 C-5.65941121 8.11007926 -8.45441755 8.14902868 -11.25 8.1875 C-12.21808594 8.21263672 -13.18617187 8.23777344 -14.18359375 8.26367188 C-15.11816406 8.27333984 -16.05273438 8.28300781 -17.015625 8.29296875 C-17.87446289 8.3086792 -18.73330078 8.32438965 -19.61816406 8.34057617 C-22.56974216 7.91853318 -23.92403343 7.12909642 -26 5 C-26 3.68 -26 2.36 -26 1 C-17.42 1.99 -8.84 2.98 0 4 C0 2.68 0 1.36 0 0 Z " fill="#000000" transform="translate(1129,552)"/>
<path d="M0 0 C6 0 6 0 7.8840332 1.15356445 C9.46880876 3.77567287 9.159916 5.51451978 8.85546875 8.54296875 C8.75556641 9.61611328 8.65566406 10.68925781 8.55273438 11.79492188 C8.43220703 12.91447266 8.31167969 14.03402344 8.1875 15.1875 C8.02411133 16.88422852 8.02411133 16.88422852 7.85742188 18.61523438 C7.58601456 21.41190978 7.29965982 24.20623387 7 27 C10.64605302 26.85936717 14.29178139 26.71153182 17.9375 26.5625 C18.95908203 26.52318359 19.98066406 26.48386719 21.03320312 26.44335938 C27.06590209 26.19279999 33.007705 25.74356945 39 25 C39 25.66 39 26.32 39 27 C34.98000981 27.50693672 30.95889046 28.0043039 26.9375 28.5 C25.80376953 28.64308594 24.67003906 28.78617188 23.50195312 28.93359375 C22.39658203 29.06894531 21.29121094 29.20429687 20.15234375 29.34375 C19.14163818 29.46943359 18.13093262 29.59511719 17.08959961 29.72460938 C13.73843337 30.02331467 10.36445241 30 7 30 C7 38.25 7 46.5 7 55 C5.35 55 3.7 55 2 55 C1 54 1 54 0.97827148 51.86694336 C1.02540283 50.95050049 1.07253418 50.03405762 1.12109375 49.08984375 C1.16943359 48.10048828 1.21777344 47.11113281 1.26757812 46.09179688 C1.32365234 45.05087891 1.37972656 44.00996094 1.4375 42.9375 C1.48970703 41.89271484 1.54191406 40.84792969 1.59570312 39.77148438 C1.72583296 37.18071764 1.86081158 34.59029334 2 32 C0.081875 32.03673828 0.081875 32.03673828 -1.875 32.07421875 C-5.75 32.1484375 -5.75 32.1484375 -8 30.8125 C-9 29 -9 29 -9 24 C-5.37 24.99 -1.74 25.98 2 27 C1.34 18.09 0.68 9.18 0 0 Z " fill="#000000" transform="translate(880,552)"/>
<path d="M0 0 C2.31 0.33 4.62 0.66 7 1 C7.02541101 7.29881934 7.04289254 13.59762539 7.05493164 19.89648438 C7.05995204 22.03809096 7.06676969 24.17969414 7.07543945 26.32128906 C7.08760549 29.40430546 7.09325133 32.48727643 7.09765625 35.5703125 C7.10281754 36.52366486 7.10797882 37.47701721 7.11329651 38.45925903 C7.11368501 43.09092165 6.95837521 47.44357251 6 52 C4.02 51.67 2.04 51.34 0 51 C0 34.17 0 17.34 0 0 Z " fill="#000000" transform="translate(920,553)"/>
<path d="M0 0 C2.97 0.495 2.97 0.495 6 1 C6.02529479 7.79930835 6.04284349 14.59860463 6.05493164 21.39794922 C6.05996943 23.71240696 6.06679981 26.0268615 6.07543945 28.34130859 C6.08752924 31.6624429 6.09323375 34.98353525 6.09765625 38.3046875 C6.10281754 39.34430634 6.10797882 40.38392517 6.11329651 41.45504761 C6.11337204 42.41589264 6.11344757 43.37673767 6.11352539 44.36669922 C6.115746 45.21497284 6.11796661 46.06324646 6.12025452 46.93722534 C6 49 6 49 5 51 C3.02 50.67 1.04 50.34 -1 50 C-0.67 33.5 -0.34 17 0 0 Z " fill="#000000" transform="translate(1283,553)"/>
<path d="M0 0 C1.98 0 3.96 0 6 0 C6.66 1.32 7.32 2.64 8 4 C4.86650268 5.04449911 4.01031744 4.93423645 1 4 C0.67 2.68 0.34 1.36 0 0 Z " fill="#FFCF00" transform="translate(1039,141)"/>
</svg>
